<?xml version="1.0" encoding="UTF-8" standalone="no"?>
<svg
   xmlns:dc="http://purl.org/dc/elements/1.1/"
   xmlns:cc="http://creativecommons.org/ns#"
   xmlns:rdf="http://www.w3.org/1999/02/22-rdf-syntax-ns#"
   xmlns:svg="http://www.w3.org/2000/svg"
   xmlns="http://www.w3.org/2000/svg"
   xmlns:sodipodi="http://sodipodi.sourceforge.net/DTD/sodipodi-0.dtd"
   xmlns:inkscape="http://www.inkscape.org/namespaces/inkscape"
   version="1.1"
   preserveAspectRatio="xMidYMid meet"
   viewBox="0 0 1024 1024"
   width="1024"
   height="1024"
   id="svg50"
   sodipodi:docname="state-ok2.svg"
   inkscape:version="1.0 (4035a4fb49, 2020-05-01)">
  <metadata
     id="metadata54">
    <rdf:RDF>
      <cc:Work
         rdf:about="">
        <dc:format>image/svg+xml</dc:format>
        <dc:type
           rdf:resource="http://purl.org/dc/dcmitype/StillImage" />
        <dc:title></dc:title>
      </cc:Work>
    </rdf:RDF>
  </metadata>
  <sodipodi:namedview
     inkscape:document-rotation="0"
     pagecolor="#ffffff"
     bordercolor="#666666"
     borderopacity="1"
     objecttolerance="10"
     gridtolerance="10"
     guidetolerance="10"
     inkscape:pageopacity="0"
     inkscape:pageshadow="2"
     inkscape:window-width="1920"
     inkscape:window-height="1057"
     id="namedview52"
     showgrid="false"
     inkscape:zoom="0.22627417"
     inkscape:cx="500.32066"
     inkscape:cy="29.771551"
     inkscape:window-x="3192"
     inkscape:window-y="-8"
     inkscape:window-maximized="1"
     inkscape:current-layer="svg50" />
  <defs
     id="defs10">
    <path
       d="M512 82.75L281 198.25L281 429.25L512 544.75L743 429.25L743 198.25L512 82.75Z"
       id="b1gaSLawtT" />
    <path
       d="M256 479.25L25 594.75L25 825.75L256 941.25L487 825.75L487 594.75L256 479.25Z"
       id="a6AXKf2m9a" />
    <path
       d="M768 479.19L537 594.69L537 825.69L768 941.19L999 825.69L999 594.69L768 479.19Z"
       id="bLFcBzLIU" />
    <path
       d="M512 132.75L331 223.25L331 404.25L512 494.75L693 404.25L693 223.25L512 132.75Z"
       id="c7J3iqruK" />
    <path
       d="M256 529.25L75 619.75L75 800.75L256 891.25L437 800.75L437 619.75L256 529.25Z"
       id="b1mvLpew04" />
    <path
       d="M768 529.25L587 619.75L587 800.75L768 891.25L949 800.75L949 619.75L768 529.25Z"
       id="caYxZX6TS" />
    <path
       d="M775.76 785.8L775.77 785.81L725.72 845.25L633 735.14L683.05 675.7L725.71 726.35L852.95 575.25L903 634.69L775.76 785.8Z"
       id="f3yVtQZrzX" />
    <path
       d="M791.76 801.8L791.77 801.81L741.72 861.25L649 751.14L699.05 691.7L741.71 742.35L868.95 591.25L919 650.69L791.76 801.8Z"
       id="aHBXCOe4I" />
  </defs>
  <path
     d="M 1024,0 743,281 V 198.25 L 512,82.75 281,198.25 v 231 L 490.16602,533.83398 448.5,575.5 256,479.25 25,594.75 v 231 L 140.5,883.5 0,1024 H 679.94531 L 500,810.30469 597.13477,694.94727 679.92578,793.24609 926.86523,500 1024,615.35742 Z m 0,615.35742 -246.93945,293.26563 0.0195,0.0195 L 679.94531,1024 H 1024 Z M 512,132.75 l 181,90.5 v 181 l -181,90.5 -181,-90.5 v -181 z m -256,396.5 181,90.5 v 181 l -181,90.5 -181,-90.5 v -181 z"
     inkscape:transform-center-y="-170.66666"
     inkscape:transform-center-x="170.66663"
     style="fill:#000000;fill-opacity:1;stroke-width:4.78888"
     id="path879" />
  <g
     id="g48">
    <g
       id="g46">
      <g
         id="g14" />
      <g
         id="g18" />
      <g
         id="g22" />
      <g
         id="g26" />
      <g
         id="g30" />
      <g
         id="g34" />
      <g
         id="g44">
        <g
           id="g38" />
        <g
           id="g42" />
      </g>
    </g>
  </g>
</svg>
