<?xml version="1.0" encoding="UTF-8" standalone="no"?>
<svg
   xmlns:dc="http://purl.org/dc/elements/1.1/"
   xmlns:cc="http://creativecommons.org/ns#"
   xmlns:rdf="http://www.w3.org/1999/02/22-rdf-syntax-ns#"
   xmlns:svg="http://www.w3.org/2000/svg"
   xmlns="http://www.w3.org/2000/svg"
   xmlns:sodipodi="http://sodipodi.sourceforge.net/DTD/sodipodi-0.dtd"
   xmlns:inkscape="http://www.inkscape.org/namespaces/inkscape"
   version="1.1"
   preserveAspectRatio="xMidYMid meet"
   viewBox="0 0 1024 1024"
   width="1024"
   height="1024"
   id="svg66"
   sodipodi:docname="state-warning.svg"
   inkscape:version="1.0 (4035a4fb49, 2020-05-01)">
  <metadata
     id="metadata70">
    <rdf:RDF>
      <cc:Work
         rdf:about="">
        <dc:format>image/svg+xml</dc:format>
        <dc:type
           rdf:resource="http://purl.org/dc/dcmitype/StillImage" />
      </cc:Work>
    </rdf:RDF>
  </metadata>
  <sodipodi:namedview
     inkscape:document-rotation="0"
     pagecolor="#ffffff"
     bordercolor="#666666"
     borderopacity="1"
     objecttolerance="10"
     gridtolerance="10"
     guidetolerance="10"
     inkscape:pageopacity="0"
     inkscape:pageshadow="2"
     inkscape:window-width="1920"
     inkscape:window-height="1027"
     id="namedview68"
     showgrid="false"
     inkscape:zoom="0.59385922"
     inkscape:cx="761.93459"
     inkscape:cy="599.84878"
     inkscape:window-x="1272"
     inkscape:window-y="22"
     inkscape:window-maximized="1"
     inkscape:current-layer="svg66" />
  <defs
     id="defs12">
    <path
       d="M512 82.75L281 198.25L281 429.25L512 544.75L743 429.25L743 198.25L512 82.75Z"
       id="d7gmhMPe3H" />
    <path
       d="M256 479.25L25 594.75L25 825.75L256 941.25L487 825.75L487 594.75L256 479.25Z"
       id="juJNAxi3n" />
    <path
       d="M768 479.19L537 594.69L537 825.69L768 941.19L999 825.69L999 594.69L768 479.19Z"
       id="a1m4NCo6DV" />
    <path
       d="M512 132.75L331 223.25L331 404.25L512 494.75L693 404.25L693 223.25L512 132.75Z"
       id="aUFRA7sT" />
    <path
       d="M256 529.25L75 619.75L75 800.75L256 891.25L437 800.75L437 619.75L256 529.25Z"
       id="b15UHNhWj9" />
    <path
       d="M768 529.25L587 619.75L587 800.75L768 891.25L949 800.75L949 619.75L768 529.25Z"
       id="ek6JRsiNQ" />
    <path
       d="M789.5 729L714.5 729L714.5 579L789.5 579L789.5 729Z"
       id="a4qIjc9YQb" />
    <path
       d="M714.5 804C714.5 783.3 731.3 766.5 752 766.5C772.7 766.5 789.5 783.3 789.5 804C789.5 824.7 772.7 841.5 752 841.5C731.3 841.5 714.5 824.7 714.5 804Z"
       id="a5b2LQUn7v" />
    <path
       d="M805.5 745L730.5 745L730.5 595L805.5 595L805.5 745Z"
       id="gp14V1XDK" />
    <path
       d="M730.5 820C730.5 799.3 747.3 782.5 768 782.5C788.7 782.5 805.5 799.3 805.5 820C805.5 840.7 788.7 857.5 768 857.5C747.3 857.5 730.5 840.7 730.5 820Z"
       id="c2aTMidTOd" />
  </defs>
  <path
     d="M 1024,0 743,281 V 198.25 L 512,82.75 281,198.25 v 231 L 490.16602,533.83398 448.5,575.5 256,479.25 25,594.75 v 231 L 140.5,883.5 0,1024 h 1024 z m -512,132.75 181,90.5 v 181 l -181,90.5 -181,-90.5 v -181 z M 721.03711,528.72461 H 855.6875 V 798.02539 H 721.03711 Z M 256,529.25 l 181,90.5 v 181 l -181,90.5 -181,-90.5 v -181 z m 532.36328,336.09961 c 37.16338,0 67.32422,30.1628 67.32422,67.32617 0,37.16338 -30.16084,67.32422 -67.32422,67.32422 -37.16337,0 -67.32617,-30.16084 -67.32617,-67.32422 0,-37.16337 30.1628,-67.32617 67.32617,-67.32617 z"
     inkscape:transform-center-y="-170.66665"
     inkscape:transform-center-x="170.66665"
     style="fill:#000000;fill-opacity:1;stroke-width:5.43164"
     id="path895" />
  <g
     id="g64">
    <g
       id="g62">
      <g
         id="g16" />
      <g
         id="g20" />
      <g
         id="g24" />
      <g
         id="g28" />
      <g
         id="g32" />
      <g
         id="g36" />
      <g
         id="g60">
        <g
           id="g48">
          <g
             id="g46">
            <g
               id="g40" />
            <g
               id="g44" />
          </g>
        </g>
        <g
           id="g58">
          <g
             id="g52" />
          <g
             id="g56" />
        </g>
      </g>
    </g>
  </g>
</svg>
