<?xml version="1.0" encoding="UTF-8" standalone="no"?>
<svg
   xmlns:dc="http://purl.org/dc/elements/1.1/"
   xmlns:cc="http://creativecommons.org/ns#"
   xmlns:rdf="http://www.w3.org/1999/02/22-rdf-syntax-ns#"
   xmlns:svg="http://www.w3.org/2000/svg"
   xmlns="http://www.w3.org/2000/svg"
   xmlns:sodipodi="http://sodipodi.sourceforge.net/DTD/sodipodi-0.dtd"
   xmlns:inkscape="http://www.inkscape.org/namespaces/inkscape"
   version="1.1"
   preserveAspectRatio="xMidYMid meet"
   viewBox="0 0 1024 1024"
   width="1024"
   height="1024"
   id="svg64"
   sodipodi:docname="state-information.svg"
   inkscape:version="1.0 (4035a4fb49, 2020-05-01)">
  <metadata
     id="metadata68">
    <rdf:RDF>
      <cc:Work
         rdf:about="">
        <dc:format>image/svg+xml</dc:format>
        <dc:type
           rdf:resource="http://purl.org/dc/dcmitype/StillImage" />
      </cc:Work>
    </rdf:RDF>
  </metadata>
  <sodipodi:namedview
     inkscape:document-rotation="0"
     pagecolor="#ffffff"
     bordercolor="#666666"
     borderopacity="1"
     objecttolerance="10"
     gridtolerance="10"
     guidetolerance="10"
     inkscape:pageopacity="0"
     inkscape:pageshadow="2"
     inkscape:window-width="1920"
     inkscape:window-height="1027"
     id="namedview66"
     showgrid="false"
     inkscape:zoom="0.41992188"
     inkscape:cx="391.67508"
     inkscape:cy="734.00386"
     inkscape:window-x="1272"
     inkscape:window-y="22"
     inkscape:window-maximized="1"
     inkscape:current-layer="svg64" />
  <defs
     id="defs12">
    <path
       d="M512 82.75L281 198.25L281 429.25L512 544.75L743 429.25L743 198.25L512 82.75Z"
       id="a7oxOwIeQl" />
    <path
       d="M256 479.25L25 594.75L25 825.75L256 941.25L487 825.75L487 594.75L256 479.25Z"
       id="d5CuMW34AC" />
    <path
       d="M768 479.19L537 594.69L537 825.69L768 941.19L999 825.69L999 594.69L768 479.19Z"
       id="ajyHGFOay" />
    <path
       d="M512 132.75L331 223.25L331 404.25L512 494.75L693 404.25L693 223.25L512 132.75Z"
       id="gs8B8iqCM" />
    <path
       d="M256 529.25L75 619.75L75 800.75L256 891.25L437 800.75L437 619.75L256 529.25Z"
       id="d49zxQo42l" />
    <path
       d="M768 529.25L587 619.75L587 800.75L768 891.25L949 800.75L949 619.75L768 529.25Z"
       id="aGKWIVB7U" />
    <path
       d="M714.5 691.5L789.5 691.5L789.5 841.5L714.5 841.5L714.5 691.5Z"
       id="b12x6W69gi" />
    <path
       d="M789.5 616.5C789.5 637.2 772.7 654 752 654C731.3 654 714.5 637.2 714.5 616.5C714.5 595.8 731.3 579 752 579C772.7 579 789.5 595.8 789.5 616.5Z"
       id="a3e08n0nn" />
    <path
       d="M730.5 707.5L805.5 707.5L805.5 857.5L730.5 857.5L730.5 707.5Z"
       id="aYxWIZhlT" />
    <path
       d="M805.5 632.5C805.5 653.2 788.7 670 768 670C747.3 670 730.5 653.2 730.5 632.5C730.5 611.8 747.3 595 768 595C788.7 595 805.5 611.8 805.5 632.5Z"
       id="c2YZn8nMnk" />
  </defs>
  <path
     d="M 1024,0 743,281 V 198.25 L 512,82.75 281,198.25 v 231 L 490.16602,533.83398 448.5,575.5 256,479.25 25,594.75 v 231 L 140.5,883.5 0,1024 h 1024 z m -512,132.75 181,90.5 v 181 l -181,90.5 -181,-90.5 v -181 z M 786,480 c 41.4,0 75,31.99916 75,71.42773 0,39.42857 -33.6,71.42969 -75,71.42969 -41.4,0 -75,-32.00112 -75,-71.42969 C 711,511.99916 744.6,480 786,480 Z m -530,49.25 181,90.5 v 181 l -181,90.5 -181,-90.5 v -181 z M 711,694.28516 H 861 V 980 H 711 Z"
     inkscape:transform-center-y="-170.66668"
     inkscape:transform-center-x="170.66659"
     style="fill:#000000;fill-opacity:1;stroke-width:1.59405"
     id="path893" />
  <g
     id="g62">
    <g
       id="g60">
      <g
         id="g16" />
      <g
         id="g20" />
      <g
         id="g24" />
      <g
         id="g28" />
      <g
         id="g32" />
      <g
         id="g36" />
      <g
         id="g58">
        <g
           id="g46">
          <g
             id="g40" />
          <g
             id="g44" />
        </g>
        <g
           id="g56">
          <g
             id="g50" />
          <g
             id="g54" />
        </g>
      </g>
    </g>
  </g>
</svg>
