<?xml version="1.0" encoding="UTF-8" standalone="no"?>
<svg
   xmlns:dc="http://purl.org/dc/elements/1.1/"
   xmlns:cc="http://creativecommons.org/ns#"
   xmlns:rdf="http://www.w3.org/1999/02/22-rdf-syntax-ns#"
   xmlns:svg="http://www.w3.org/2000/svg"
   xmlns="http://www.w3.org/2000/svg"
   xmlns:sodipodi="http://sodipodi.sourceforge.net/DTD/sodipodi-0.dtd"
   xmlns:inkscape="http://www.inkscape.org/namespaces/inkscape"
   inkscape:version="1.0 (4035a4fb49, 2020-05-01)"
   sodipodi:docname="state-offline.svg"
   id="svg74"
   height="1024"
   width="1024"
   viewBox="0 0 1024 1024"
   preserveAspectRatio="xMidYMid meet"
   version="1.1">
  <metadata
     id="metadata78">
    <rdf:RDF>
      <cc:Work
         rdf:about="">
        <dc:format>image/svg+xml</dc:format>
        <dc:type
           rdf:resource="http://purl.org/dc/dcmitype/StillImage" />
      </cc:Work>
    </rdf:RDF>
  </metadata>
  <sodipodi:namedview
     inkscape:current-layer="svg74"
     inkscape:window-maximized="1"
     inkscape:window-y="22"
     inkscape:window-x="1272"
     inkscape:cy="540.35786"
     inkscape:cx="516.19657"
     inkscape:zoom="0.59385921"
     showgrid="false"
     id="namedview76"
     inkscape:window-height="1027"
     inkscape:window-width="1920"
     inkscape:pageshadow="2"
     inkscape:pageopacity="0"
     guidetolerance="10"
     gridtolerance="10"
     objecttolerance="10"
     borderopacity="1"
     bordercolor="#666666"
     pagecolor="#ffffff"
     inkscape:document-rotation="0" />
  <defs
     id="defs14">
    <path
       id="a5dN6uCWv"
       d="M512 82.75L281 198.25L281 429.25L512 544.75L743 429.25L743 198.25L512 82.75Z" />
    <path
       id="aNnYSCslU"
       d="M256 479.25L25 594.75L25 825.75L256 941.25L487 825.75L487 594.75L256 479.25Z" />
    <path
       id="a2fVV1igW2"
       d="M768 479.19L537 594.69L537 825.69L768 941.19L999 825.69L999 594.69L768 479.19Z" />
    <path
       id="bVFcEEK8V"
       d="M512 132.75L331 223.25L331 404.25L512 494.75L693 404.25L693 223.25L512 132.75Z" />
    <path
       id="bi8exSx0o"
       d="M256 529.25L75 619.75L75 800.75L256 891.25L437 800.75L437 619.75L256 529.25Z" />
    <path
       id="b1Eq7KlwOO"
       d="M768 529.25L587 619.75L587 800.75L768 891.25L949 800.75L949 619.75L768 529.25Z" />
    <path
       id="bfxXTjpFe"
       d="M677 694.25C677 714.95 660.2 731.75 639.5 731.75C618.8 731.75 602 714.95 602 694.25C602 673.55 618.8 656.75 639.5 656.75C660.2 656.75 677 673.55 677 694.25Z" />
    <path
       id="a1ZLkBAjHm"
       d="M789.5 694.25C789.5 714.95 772.7 731.75 752 731.75C731.3 731.75 714.5 714.95 714.5 694.25C714.5 673.55 731.3 656.75 752 656.75C772.7 656.75 789.5 673.55 789.5 694.25Z" />
    <path
       id="h2itwLewTK"
       d="M902 694.25C902 714.95 885.2 731.75 864.5 731.75C843.8 731.75 827 714.95 827 694.25C827 673.55 843.8 656.75 864.5 656.75C885.2 656.75 902 673.55 902 694.25Z" />
    <path
       id="anFsmxfdL"
       d="M693 710.25C693 730.95 676.2 747.75 655.5 747.75C634.8 747.75 618 730.95 618 710.25C618 689.55 634.8 672.75 655.5 672.75C676.2 672.75 693 689.55 693 710.25Z" />
    <path
       id="a48HYSQhd3"
       d="M805.5 710.25C805.5 730.95 788.7 747.75 768 747.75C747.3 747.75 730.5 730.95 730.5 710.25C730.5 689.55 747.3 672.75 768 672.75C788.7 672.75 805.5 689.55 805.5 710.25Z" />
    <path
       id="anq0XOugt"
       d="M918 710.25C918 730.95 901.2 747.75 880.5 747.75C859.8 747.75 843 730.95 843 710.25C843 689.55 859.8 672.75 880.5 672.75C901.2 672.75 918 689.55 918 710.25Z" />
  </defs>
  <path
     d="M 1024 0 L 743 281 L 743 198.25 L 512 82.75 L 281 198.25 L 281 429.25 L 490.16602 533.83398 L 448.5 575.5 L 256 479.25 L 25 594.75 L 25 825.75 L 140.5 883.5 L 0 1024 L 1024 1024 L 1024 0 z M 512 132.75 L 693 223.25 L 693 404.25 L 512 494.75 L 331 404.25 L 331 223.25 L 512 132.75 z M 256 529.25 L 437 619.75 L 437 800.75 L 256 891.25 L 75 800.75 L 75 619.75 L 256 529.25 z M 575 635 C 616.4 635 650 668.6 650 710 C 650 751.4 616.4 785 575 785 C 533.6 785 500 751.4 500 710 C 500 668.6 533.6 635 575 635 z M 750 635 C 791.4 635 825 668.6 825 710 C 825 751.4 791.4 785 750 785 C 708.6 785 675 751.4 675 710 C 675 668.6 708.6 635 750 635 z M 925 635 C 966.4 635 1000 668.6 1000 710 C 1000 751.4 966.4 785 925 785 C 883.6 785 850 751.4 850 710 C 850 668.6 883.6 635 925 635 z "
     inkscape:transform-center-y="-170.66666"
     inkscape:transform-center-x="170.66673"
     style="fill:#000000;fill-opacity:1;stroke-width:7.50285"
     id="path903" />
  <g
     id="g72">
    <g
       id="g70">
      <g
         id="g18" />
      <g
         id="g22" />
      <g
         id="g26" />
      <g
         id="g30" />
      <g
         id="g34" />
      <g
         id="g38" />
      <g
         id="g68">
        <g
           id="g52">
          <g
             id="g42" />
          <g
             id="g46" />
          <g
             id="g50" />
        </g>
        <g
           id="g66">
          <g
             id="g56" />
          <g
             id="g60" />
          <g
             id="g64" />
        </g>
      </g>
    </g>
  </g>
</svg>
