<?xml version="1.0" encoding="UTF-8" standalone="no"?>
<svg
   xmlns:dc="http://purl.org/dc/elements/1.1/"
   xmlns:cc="http://creativecommons.org/ns#"
   xmlns:rdf="http://www.w3.org/1999/02/22-rdf-syntax-ns#"
   xmlns:svg="http://www.w3.org/2000/svg"
   xmlns="http://www.w3.org/2000/svg"
   xmlns:sodipodi="http://sodipodi.sourceforge.net/DTD/sodipodi-0.dtd"
   xmlns:inkscape="http://www.inkscape.org/namespaces/inkscape"
   version="1.1"
   preserveAspectRatio="xMidYMid meet"
   viewBox="0 0 1024 1024"
   width="1024"
   height="1024"
   id="svg55"
   sodipodi:docname="state-sync.svg"
   inkscape:version="1.0 (4035a4fb49, 2020-05-01)">
  <metadata
     id="metadata59">
    <rdf:RDF>
      <cc:Work
         rdf:about="">
        <dc:format>image/svg+xml</dc:format>
        <dc:type
           rdf:resource="http://purl.org/dc/dcmitype/StillImage" />
      </cc:Work>
    </rdf:RDF>
  </metadata>
  <sodipodi:namedview
     inkscape:document-rotation="0"
     pagecolor="#ffffff"
     bordercolor="#666666"
     borderopacity="1"
     objecttolerance="10"
     gridtolerance="10"
     guidetolerance="10"
     inkscape:pageopacity="0"
     inkscape:pageshadow="2"
     inkscape:window-width="1920"
     inkscape:window-height="1027"
     id="namedview57"
     showgrid="false"
     inkscape:zoom="0.59385921"
     inkscape:cx="243.17848"
     inkscape:cy="594.61587"
     inkscape:window-x="1272"
     inkscape:window-y="22"
     inkscape:window-maximized="1"
     inkscape:current-layer="svg55" />
  <defs
     id="defs11">
    <path
       d="M512 82.75L281 198.25L281 429.25L512 544.75L743 429.25L743 198.25L512 82.75Z"
       id="aaYJtZuWM" />
    <path
       d="M256 479.25L25 594.75L25 825.75L256 941.25L487 825.75L487 594.75L256 479.25Z"
       id="guBEYfKBf" />
    <path
       d="M768 479.19L537 594.69L537 825.69L768 941.19L999 825.69L999 594.69L768 479.19Z"
       id="ctt233SnN" />
    <path
       d="M512 132.75L331 223.25L331 404.25L512 494.75L693 404.25L693 223.25L512 132.75Z"
       id="c30eHpcVHV" />
    <path
       d="M256 529.25L75 619.75L75 800.75L256 891.25L437 800.75L437 619.75L256 529.25Z"
       id="c1vmiJzfWH" />
    <path
       d="M768 529.25L587 619.75L587 800.75L768 891.25L949 800.75L949 619.75L768 529.25Z"
       id="a2g6V0OVNQ" />
    <path
       d="M884 702.25C884 776.76 823.51 837.25 749 837.25C674.49 837.25 614 776.76 614 702.25C614 627.74 674.49 567.25 749 567.25C823.51 567.25 884 627.74 884 702.25Z"
       id="c4UCGYS8ou" />
    <path
       d="M900 718.25C900 792.76 839.51 853.25 765 853.25C690.49 853.25 630 792.76 630 718.25C630 643.74 690.49 583.25 765 583.25C839.51 583.25 900 643.74 900 718.25Z"
       id="a1tMwalsyo" />
    <path
       d="M859.5 718.25C859.5 770.41 817.16 812.75 765 812.75C712.84 812.75 670.5 770.41 670.5 718.25C670.5 666.1 712.84 623.75 765 623.75C817.16 623.75 859.5 666.1 859.5 718.25Z"
       id="bybMdrk3x" />
  </defs>
  <path
     d="M 1024 0 L 743 281 L 743 198.25 L 512 82.75 L 281 198.25 L 281 429.25 L 490.16602 533.83398 L 448.5 575.5 L 256 479.25 L 25 594.75 L 25 825.75 L 140.5 883.5 L 0 1024 L 1024 1024 L 1024 0 z M 512 132.75 L 693 223.25 L 693 404.25 L 512 494.75 L 331 404.25 L 331 223.25 L 512 132.75 z M 756 500 C 893.9815 500 1006 612.01852 1006 750 C 1006 887.98148 893.9815 1000 756 1000 C 618.01852 1000 506 887.98148 506 750 C 506 612.01852 618.01852 500 756 500 z M 256 529.25 L 437 619.75 L 437 800.75 L 256 891.25 L 75 800.75 L 75 619.75 L 256 529.25 z M 756 575 C 659.40741 575 581 653.42593 581 750 C 581 846.59259 659.40741 925 756 925 C 852.59259 925 931 846.59259 931 750 C 931 653.42593 852.59259 575 756 575 z "
     inkscape:transform-center-y="-170.66665"
     inkscape:transform-center-x="170.6667"
     style="fill:#000000;fill-opacity:1;stroke-width:5.31399"
     id="path884" />
  <g
     id="g53">
    <g
       id="g51">
      <g
         id="g15" />
      <g
         id="g19" />
      <g
         id="g23" />
      <g
         id="g27" />
      <g
         id="g31" />
      <g
         id="g35" />
      <g
         id="g49">
        <g
           id="g39" />
        <g
           id="g43" />
        <g
           id="g47" />
      </g>
    </g>
  </g>
</svg>
