<?xml version="1.0" encoding="UTF-8" standalone="no"?>
<svg
   xmlns:dc="http://purl.org/dc/elements/1.1/"
   xmlns:cc="http://creativecommons.org/ns#"
   xmlns:rdf="http://www.w3.org/1999/02/22-rdf-syntax-ns#"
   xmlns:svg="http://www.w3.org/2000/svg"
   xmlns="http://www.w3.org/2000/svg"
   xmlns:sodipodi="http://sodipodi.sourceforge.net/DTD/sodipodi-0.dtd"
   xmlns:inkscape="http://www.inkscape.org/namespaces/inkscape"
   version="1.1"
   preserveAspectRatio="xMidYMid meet"
   viewBox="0 0 1024 1024"
   width="1024"
   height="1024"
   id="svg50"
   sodipodi:docname="state-error.svg"
   inkscape:version="1.0 (4035a4fb49, 2020-05-01)"
   inkscape:export-filename="Z:\kovan\kovanbbbV2\theme\colored\state-error-256.png"
   inkscape:export-xdpi="24"
   inkscape:export-ydpi="24">
  <metadata
     id="metadata54">
    <rdf:RDF>
      <cc:Work
         rdf:about="">
        <dc:format>image/svg+xml</dc:format>
        <dc:type
           rdf:resource="http://purl.org/dc/dcmitype/StillImage" />
      </cc:Work>
    </rdf:RDF>
  </metadata>
  <sodipodi:namedview
     inkscape:document-rotation="0"
     pagecolor="#ffffff"
     bordercolor="#666666"
     borderopacity="1"
     objecttolerance="10"
     gridtolerance="10"
     guidetolerance="10"
     inkscape:pageopacity="0"
     inkscape:pageshadow="2"
     inkscape:window-width="1920"
     inkscape:window-height="1027"
     id="namedview52"
     showgrid="false"
     inkscape:zoom="0.29692961"
     inkscape:cx="217.84587"
     inkscape:cy="807.77981"
     inkscape:window-x="1272"
     inkscape:window-y="22"
     inkscape:window-maximized="1"
     inkscape:current-layer="svg50" />
  <defs
     id="defs10">
    <path
       d="M512 82.75L281 198.25L281 429.25L512 544.75L743 429.25L743 198.25L512 82.75Z"
       id="acj8zWLRw" />
    <path
       d="M256 479.25L25 594.75L25 825.75L256 941.25L487 825.75L487 594.75L256 479.25Z"
       id="m6LX9eLTO" />
    <path
       d="M768 479.19L537 594.69L537 825.69L768 941.19L999 825.69L999 594.69L768 479.19Z"
       id="c41YhFttj" />
    <path
       d="M512 132.75L331 223.25L331 404.25L512 494.75L693 404.25L693 223.25L512 132.75Z"
       id="b277kCtx6O" />
    <path
       d="M256 529.25L75 619.75L75 800.75L256 891.25L437 800.75L437 619.75L256 529.25Z"
       id="a4XjexOA" />
    <path
       d="M768 529.25L587 619.75L587 800.75L768 891.25L949 800.75L949 619.75L768 529.25Z"
       id="f8qJMSTvu" />
    <path
       d="M796.87 694.25L877 774.38L832.13 819.25L752 739.12L671.87 819.25L627 774.38L707.13 694.25L627 614.12L671.87 569.25L752 649.38L832.13 569.25L877 614.12L796.87 694.25Z"
       id="ctbYs7Lyd" />
    <path
       d="M812.87 710.25L893 790.38L848.13 835.25L768 755.12L687.87 835.25L643 790.38L723.13 710.25L643 630.12L687.87 585.25L768 665.38L848.13 585.25L893 630.12L812.87 710.25Z"
       id="a1JkqMvLV5" />
  </defs>
  <path
     d="M 1024,0 743,281 V 198.25 L 512,82.75 281,198.25 v 231 L 490.16602,533.83398 448.5,575.5 256,479.25 25,594.75 v 231 L 140.5,883.5 0,1024 H 613.74023 L 524,934.25977 684.25977,774 524,613.74023 613.74023,524 774,684.25977 934.25977,524 1024,613.74023 Z m 0,613.74023 L 863.74023,774 1024,934.25977 Z m 0,320.51954 L 934.25977,1024 H 1024 Z M 934.25977,1024 774,863.74023 613.74023,1024 Z M 512,132.75 l 181,90.5 v 181 l -181,90.5 -181,-90.5 v -181 z m -256,396.5 181,90.5 v 181 l -181,90.5 -181,-90.5 v -181 z"
     inkscape:transform-center-y="-170.66667"
     inkscape:transform-center-x="170.66672"
     style="fill:#000000;fill-opacity:1;stroke-width:2.06311;stroke-miterlimit:4;stroke-dasharray:none;paint-order:fill markers stroke"
     id="path939" />
  <g
     id="g48">
    <g
       id="g46">
      <g
         id="g14" />
      <g
         id="g18" />
      <g
         id="g22" />
      <g
         id="g26" />
      <g
         id="g30" />
      <g
         id="g34" />
      <g
         id="g44">
        <g
           id="g38" />
        <g
           id="g42" />
      </g>
    </g>
  </g>
</svg>
