<?xml version="1.0" encoding="UTF-8" standalone="no"?>
<!DOCTYPE svg PUBLIC "-//W3C//DTD SVG 1.1//EN" "http://www.w3.org/Graphics/SVG/1.1/DTD/svg11.dtd">
<svg version="1.1" xmlns="http://www.w3.org/2000/svg" xmlns:xlink="http://www.w3.org/1999/xlink" preserveAspectRatio="xMidYMid meet" viewBox="0 0 640 400" width="640" height="400"><defs><path d="M119.28 53.81L119.28 161.44L226.91 215.26L334.53 161.44L334.53 53.81L226.91 0L119.28 53.81Z" id="e1n6DpeFab"></path><path d="M0 238.56L0 346.19L107.63 400L215.26 346.19L215.26 238.56L107.63 184.74L0 238.56Z" id="bASUqe7"></path><path d="M238.55 238.53L238.55 346.16L346.18 399.97L453.81 346.16L453.81 238.53L346.18 184.71L238.55 238.53Z" id="b6UepeEOvD"></path><path d="M142.57 65.46L142.57 149.8L226.91 191.96L311.24 149.8L311.24 65.46L226.91 23.3L142.57 65.46Z" id="b1z8sxJLOl"></path><path d="M23.3 250.2L23.3 334.54L107.63 376.7L191.96 334.54L191.96 250.2L107.63 208.04L23.3 250.2Z" id="au9e0Vlv"></path><path d="M261.85 250.2L261.85 334.54L346.18 376.7L430.51 334.54L430.51 250.2L346.18 208.04L261.85 250.2Z" id="a2v2iPols0"></path></defs><g><g><g><g><use xlink:href="#e1n6DpeFab" opacity="1" fill="#002857" fill-opacity="1"></use><g><use xlink:href="#e1n6DpeFab" opacity="1" fill-opacity="0" stroke="#000000" stroke-width="1" stroke-opacity="0"></use></g></g><g><use xlink:href="#bASUqe7" opacity="1" fill="#002857" fill-opacity="1"></use><g><use xlink:href="#bASUqe7" opacity="1" fill-opacity="0" stroke="#000000" stroke-width="1" stroke-opacity="0"></use></g></g><g><use xlink:href="#b6UepeEOvD" opacity="1" fill="#002857" fill-opacity="1"></use><g><use xlink:href="#b6UepeEOvD" opacity="1" fill-opacity="0" stroke="#000000" stroke-width="1" stroke-opacity="0"></use></g></g><g><use xlink:href="#b1z8sxJLOl" opacity="1" fill="#ffffff" fill-opacity="1"></use><g><use xlink:href="#b1z8sxJLOl" opacity="1" fill-opacity="0" stroke="#000000" stroke-width="1" stroke-opacity="0"></use></g></g><g><use xlink:href="#au9e0Vlv" opacity="1" fill="#ffffff" fill-opacity="1"></use><g><use xlink:href="#au9e0Vlv" opacity="1" fill-opacity="0" stroke="#000000" stroke-width="1" stroke-opacity="0"></use></g></g><g><use xlink:href="#a2v2iPols0" opacity="1" fill="#ffffff" fill-opacity="1"></use><g><use xlink:href="#a2v2iPols0" opacity="1" fill-opacity="0" stroke="#000000" stroke-width="1" stroke-opacity="0"></use></g></g></g></g></g></svg>