<?xml version="1.0" encoding="UTF-8" standalone="no"?>
<svg
   xmlns:dc="http://purl.org/dc/elements/1.1/"
   xmlns:cc="http://creativecommons.org/ns#"
   xmlns:rdf="http://www.w3.org/1999/02/22-rdf-syntax-ns#"
   xmlns:svg="http://www.w3.org/2000/svg"
   xmlns="http://www.w3.org/2000/svg"
   xmlns:sodipodi="http://sodipodi.sourceforge.net/DTD/sodipodi-0.dtd"
   xmlns:inkscape="http://www.inkscape.org/namespaces/inkscape"
   inkscape:export-ydpi="12"
   inkscape:export-xdpi="12"
   inkscape:export-filename="Z:\kovan\kovanbbbV2\theme\colored\state-download-128.png"
   inkscape:version="1.0 (4035a4fb49, 2020-05-01)"
   sodipodi:docname="state-download.svg"
   id="svg50"
   height="1024"
   width="1024"
   viewBox="0 0 1024 1024"
   preserveAspectRatio="xMidYMid meet"
   version="1.1">
  <metadata
     id="metadata54">
    <rdf:RDF>
      <cc:Work
         rdf:about="">
        <dc:format>image/svg+xml</dc:format>
        <dc:type
           rdf:resource="http://purl.org/dc/dcmitype/StillImage" />
      </cc:Work>
    </rdf:RDF>
  </metadata>
  <sodipodi:namedview
     inkscape:current-layer="svg50"
     inkscape:window-maximized="1"
     inkscape:window-y="22"
     inkscape:window-x="1272"
     inkscape:cy="556.2002"
     inkscape:cx="614.41879"
     inkscape:zoom="0.59385922"
     showgrid="false"
     id="namedview52"
     inkscape:window-height="1027"
     inkscape:window-width="1920"
     inkscape:pageshadow="2"
     inkscape:pageopacity="0"
     guidetolerance="10"
     gridtolerance="10"
     objecttolerance="10"
     borderopacity="1"
     bordercolor="#666666"
     pagecolor="#ffffff"
     inkscape:document-rotation="0" />
  <defs
     id="defs10">
    <path
       id="bv68mOBMh"
       d="M512 82.75L281 198.25L281 429.25L512 544.75L743 429.25L743 198.25L512 82.75Z" />
    <path
       id="c1dweQCvX0"
       d="M256 479.25L25 594.75L25 825.75L256 941.25L487 825.75L487 594.75L256 479.25Z" />
    <path
       id="a1KPZV6CE"
       d="M768 479.19L537 594.69L537 825.69L768 941.19L999 825.69L999 594.69L768 479.19Z" />
    <path
       id="c1YiDvuMEF"
       d="M512 132.75L331 223.25L331 404.25L512 494.75L693 404.25L693 223.25L512 132.75Z" />
    <path
       id="f1Gmufz5Rq"
       d="M256 529.25L75 619.75L75 800.75L256 891.25L437 800.75L437 619.75L256 529.25Z" />
    <path
       id="h1CfIasGZf"
       d="M768 529.25L587 619.75L587 800.75L768 891.25L949 800.75L949 619.75L768 529.25Z" />
    <path
       id="egLENadeg"
       d="M602 714.66L752 860.25L902 714.66L806.91 714.66L806.91 560.25L696.85 560.25L696.85 714.66L602 714.66Z" />
    <path
       id="g5s4D6Klg"
       d="M618 730.66L768 876.25L918 730.66L822.91 730.66L822.91 576.25L712.85 576.25L712.85 730.66L618 730.66Z" />
  </defs>
  <path
     id="path939"
     style="fill:#ffffff;fill-opacity:1;stroke-width:2.06311;stroke-miterlimit:4;stroke-dasharray:none;paint-order:fill markers stroke"
     inkscape:transform-center-x="170.66672"
     inkscape:transform-center-y="-170.66667"
     d="M 1024,0 743,281 V 198.25 L 512,82.75 281,198.25 v 231 L 490.16602,533.83398 448.5,575.5 256,479.25 25,594.75 v 231 L 140.5,883.5 0,1024 H 774 L 524,781.34961 H 682.08398 V 524 h 183.4336 V 781.34961 H 1024 Z m 0,781.34961 L 774,1024 h 250 z M 512,132.75 l 181,90.5 v 181 l -181,90.5 -181,-90.5 v -181 z m -256,396.5 181,90.5 v 181 l -181,90.5 -181,-90.5 v -181 z" />
  <g
     id="g48">
    <g
       id="g46">
      <g
         id="g14" />
      <g
         id="g18" />
      <g
         id="g22" />
      <g
         id="g26" />
      <g
         id="g30" />
      <g
         id="g34" />
      <g
         id="g44">
        <g
           id="g38" />
        <g
           id="g42" />
      </g>
    </g>
  </g>
</svg>
