<?xml version="1.0" encoding="UTF-8" standalone="no"?>
<svg
   xmlns:dc="http://purl.org/dc/elements/1.1/"
   xmlns:cc="http://creativecommons.org/ns#"
   xmlns:rdf="http://www.w3.org/1999/02/22-rdf-syntax-ns#"
   xmlns:svg="http://www.w3.org/2000/svg"
   xmlns="http://www.w3.org/2000/svg"
   xmlns:sodipodi="http://sodipodi.sourceforge.net/DTD/sodipodi-0.dtd"
   xmlns:inkscape="http://www.inkscape.org/namespaces/inkscape"
   inkscape:version="1.0 (4035a4fb49, 2020-05-01)"
   sodipodi:docname="state-pause.svg"
   id="svg64"
   height="1024"
   width="1024"
   viewBox="0 0 1024 1024"
   preserveAspectRatio="xMidYMid meet"
   version="1.1">
  <metadata
     id="metadata68">
    <rdf:RDF>
      <cc:Work
         rdf:about="">
        <dc:format>image/svg+xml</dc:format>
        <dc:type
           rdf:resource="http://purl.org/dc/dcmitype/StillImage" />
      </cc:Work>
    </rdf:RDF>
  </metadata>
  <sodipodi:namedview
     inkscape:current-layer="svg64"
     inkscape:window-maximized="1"
     inkscape:window-y="22"
     inkscape:window-x="1272"
     inkscape:cy="855.68831"
     inkscape:cx="1445.9234"
     inkscape:zoom="0.41992188"
     showgrid="false"
     id="namedview66"
     inkscape:window-height="1027"
     inkscape:window-width="1920"
     inkscape:pageshadow="2"
     inkscape:pageopacity="0"
     guidetolerance="10"
     gridtolerance="10"
     objecttolerance="10"
     borderopacity="1"
     bordercolor="#666666"
     pagecolor="#ffffff"
     inkscape:document-rotation="0" />
  <defs
     id="defs12">
    <path
       id="e1WBARu90S"
       d="M512 82.75L281 198.25L281 429.25L512 544.75L743 429.25L743 198.25L512 82.75Z" />
    <path
       id="eb1XRg4tc"
       d="M256 479.25L25 594.75L25 825.75L256 941.25L487 825.75L487 594.75L256 479.25Z" />
    <path
       id="e6GMMqVZL"
       d="M768 479.19L537 594.69L537 825.69L768 941.19L999 825.69L999 594.69L768 479.19Z" />
    <path
       id="d4CeX45ci"
       d="M512 132.75L331 223.25L331 404.25L512 494.75L693 404.25L693 223.25L512 132.75Z" />
    <path
       id="a56Iihd7Bz"
       d="M256 529.25L75 619.75L75 800.75L256 891.25L437 800.75L437 619.75L256 529.25Z" />
    <path
       id="aTgTdlF3i"
       d="M768 529.25L587 619.75L587 800.75L768 891.25L949 800.75L949 619.75L768 529.25Z" />
    <path
       id="buWUeZm5d"
       d="M627.4 610.25L727.39 610.25L727.39 810.25L627.4 810.25L627.4 610.25Z" />
    <path
       id="a69KnhXCsA"
       d="M776.61 610.25L876.6 610.25L876.6 810.25L776.61 810.25L776.61 610.25Z" />
    <path
       id="bhqSsXvzH"
       d="M635.4 618.25L735.39 618.25L735.39 818.25L635.4 818.25L635.4 618.25Z" />
    <path
       id="c3AII3rP0"
       d="M784.61 618.25L884.6 618.25L884.6 818.25L784.61 818.25L784.61 618.25Z" />
  </defs>
  <path
     id="path893"
     style="fill:#ffffff;fill-opacity:1;stroke-width:4.86553"
     inkscape:transform-center-x="170.66661"
     inkscape:transform-center-y="-170.66666"
     d="M 1024 0 L 743 281 L 743 198.25 L 512 82.75 L 281 198.25 L 281 429.25 L 490.16602 533.83398 L 448.5 575.5 L 256 479.25 L 25 594.75 L 25 825.75 L 140.5 883.5 L 0 1024 L 1024 1024 L 1024 0 z M 512 132.75 L 693 223.25 L 693 404.25 L 512 494.75 L 331 404.25 L 331 223.25 L 512 132.75 z M 256 529.25 L 437 619.75 L 437 800.75 L 256 891.25 L 75 800.75 L 75 619.75 L 256 529.25 z M 521 600 L 721 600 L 721 1000 L 521 1000 L 521 600 z M 791 600 L 991 600 L 991 1000 L 791 1000 L 791 600 z " />
  <g
     id="g62">
    <g
       id="g60">
      <g
         id="g16" />
      <g
         id="g20" />
      <g
         id="g24" />
      <g
         id="g28" />
      <g
         id="g32" />
      <g
         id="g36" />
      <g
         id="g58">
        <g
           id="g46">
          <g
             id="g40" />
          <g
             id="g44" />
        </g>
        <g
           id="g56">
          <g
             id="g50" />
          <g
             id="g54" />
        </g>
      </g>
    </g>
  </g>
</svg>
