<?xml version="1.0" encoding="UTF-8" standalone="no"?>
<!DOCTYPE svg PUBLIC "-//W3C//DTD SVG 1.1//EN" "http://www.w3.org/Graphics/SVG/1.1/DTD/svg11.dtd">
<svg version="1.1" xmlns="http://www.w3.org/2000/svg" xmlns:xlink="http://www.w3.org/1999/xlink" preserveAspectRatio="xMidYMid meet" viewBox="0 0 1024 1024" width="1024" height="1024"><defs><path d="M512 82.75L281 198.25L281 429.25L512 544.75L743 429.25L743 198.25L512 82.75Z" id="g3XjE1cX2k"></path><path d="M256 479.25L25 594.75L25 825.75L256 941.25L487 825.75L487 594.75L256 479.25Z" id="a66GyviMe"></path><path d="M768 479.19L537 594.69L537 825.69L768 941.19L999 825.69L999 594.69L768 479.19Z" id="b24T5F6I6"></path><path d="M512 132.75L331 223.25L331 404.25L512 494.75L693 404.25L693 223.25L512 132.75Z" id="c15phrV4"></path><path d="M256 529.25L75 619.75L75 800.75L256 891.25L437 800.75L437 619.75L256 529.25Z" id="a2jEFGHw5m"></path><path d="M768 529.25L587 619.75L587 800.75L768 891.25L949 800.75L949 619.75L768 529.25Z" id="g1cRLf1Lc"></path></defs><g><g><g><use xlink:href="#g3XjE1cX2k" opacity="1" fill="#002857" fill-opacity="1"></use></g><g><use xlink:href="#a66GyviMe" opacity="1" fill="#002857" fill-opacity="1"></use></g><g><use xlink:href="#b24T5F6I6" opacity="1" fill="#002857" fill-opacity="1"></use></g><g><use xlink:href="#c15phrV4" opacity="1" fill="#ffffff" fill-opacity="1"></use></g><g><use xlink:href="#a2jEFGHw5m" opacity="1" fill="#ffffff" fill-opacity="1"></use></g><g><use xlink:href="#g1cRLf1Lc" opacity="1" fill="#ffffff" fill-opacity="1"></use></g></g></g></svg>