<?xml version="1.0" encoding="UTF-8" standalone="no"?>
<svg
   xmlns:dc="http://purl.org/dc/elements/1.1/"
   xmlns:cc="http://creativecommons.org/ns#"
   xmlns:rdf="http://www.w3.org/1999/02/22-rdf-syntax-ns#"
   xmlns:svg="http://www.w3.org/2000/svg"
   xmlns="http://www.w3.org/2000/svg"
   xmlns:xlink="http://www.w3.org/1999/xlink"
   xmlns:sodipodi="http://sodipodi.sourceforge.net/DTD/sodipodi-0.dtd"
   xmlns:inkscape="http://www.inkscape.org/namespaces/inkscape"
   inkscape:version="1.0 (4035a4fb49, 2020-05-01)"
   sodipodi:docname="state-information.svg"
   id="svg64"
   height="1024"
   width="1024"
   viewBox="0 0 1024 1024"
   preserveAspectRatio="xMidYMid meet"
   version="1.1">
  <metadata
     id="metadata68">
    <rdf:RDF>
      <cc:Work
         rdf:about="">
        <dc:format>image/svg+xml</dc:format>
        <dc:type
           rdf:resource="http://purl.org/dc/dcmitype/StillImage" />
      </cc:Work>
    </rdf:RDF>
  </metadata>
  <sodipodi:namedview
     inkscape:current-layer="svg64"
     inkscape:window-maximized="1"
     inkscape:window-y="22"
     inkscape:window-x="1272"
     inkscape:cy="734.00386"
     inkscape:cx="391.67508"
     inkscape:zoom="0.41992188"
     showgrid="false"
     id="namedview66"
     inkscape:window-height="1027"
     inkscape:window-width="1920"
     inkscape:pageshadow="2"
     inkscape:pageopacity="0"
     guidetolerance="10"
     gridtolerance="10"
     objecttolerance="10"
     borderopacity="1"
     bordercolor="#666666"
     pagecolor="#ffffff" />
  <defs
     id="defs12">
    <path
       id="a7oxOwIeQl"
       d="M512 82.75L281 198.25L281 429.25L512 544.75L743 429.25L743 198.25L512 82.75Z" />
    <path
       id="d5CuMW34AC"
       d="M256 479.25L25 594.75L25 825.75L256 941.25L487 825.75L487 594.75L256 479.25Z" />
    <path
       id="ajyHGFOay"
       d="M768 479.19L537 594.69L537 825.69L768 941.19L999 825.69L999 594.69L768 479.19Z" />
    <path
       id="gs8B8iqCM"
       d="M512 132.75L331 223.25L331 404.25L512 494.75L693 404.25L693 223.25L512 132.75Z" />
    <path
       id="d49zxQo42l"
       d="M256 529.25L75 619.75L75 800.75L256 891.25L437 800.75L437 619.75L256 529.25Z" />
    <path
       id="aGKWIVB7U"
       d="M768 529.25L587 619.75L587 800.75L768 891.25L949 800.75L949 619.75L768 529.25Z" />
    <path
       id="b12x6W69gi"
       d="M714.5 691.5L789.5 691.5L789.5 841.5L714.5 841.5L714.5 691.5Z" />
    <path
       id="a3e08n0nn"
       d="M789.5 616.5C789.5 637.2 772.7 654 752 654C731.3 654 714.5 637.2 714.5 616.5C714.5 595.8 731.3 579 752 579C772.7 579 789.5 595.8 789.5 616.5Z" />
    <path
       id="aYxWIZhlT"
       d="M730.5 707.5L805.5 707.5L805.5 857.5L730.5 857.5L730.5 707.5Z" />
    <path
       id="c2YZn8nMnk"
       d="M805.5 632.5C805.5 653.2 788.7 670 768 670C747.3 670 730.5 653.2 730.5 632.5C730.5 611.8 747.3 595 768 595C788.7 595 805.5 611.8 805.5 632.5Z" />
  </defs>
  <path
     inkscape:transform-center-x="170.66659"
     transform="matrix(1.483429,0,-0.85645814,1.7129163,3169.8901,1103.7863)"
     inkscape:transform-center-y="-170.66668"
     d="m -1473.4666,-46.579222 -690.2926,-3e-6 345.1463,-597.810885 z"
     inkscape:randomized="0"
     inkscape:rounded="0"
     inkscape:flatsided="true"
     sodipodi:arg2="1.5707963"
     sodipodi:arg1="0.52359878"
     sodipodi:r2="199.27029"
     sodipodi:r1="398.54059"
     sodipodi:cy="-245.84952"
     sodipodi:cx="-1818.6129"
     sodipodi:sides="3"
     id="path893"
     style="fill:#2268ab;fill-opacity:1"
     sodipodi:type="star" />
  <g
     id="g62">
    <g
       id="g60">
      <g
         id="g16">
        <use
           id="use14"
           fill-opacity="1"
           fill="#002857"
           opacity="1"
           xlink:href="#a7oxOwIeQl" />
      </g>
      <g
         id="g20">
        <use
           id="use18"
           fill-opacity="1"
           fill="#002857"
           opacity="1"
           xlink:href="#d5CuMW34AC" />
      </g>
      <g
         id="g24" />
      <g
         id="g28">
        <use
           id="use26"
           fill-opacity="1"
           fill="#ffffff"
           opacity="1"
           xlink:href="#gs8B8iqCM" />
      </g>
      <g
         id="g32">
        <use
           id="use30"
           fill-opacity="1"
           fill="#ffffff"
           opacity="1"
           xlink:href="#d49zxQo42l" />
      </g>
      <g
         id="g36" />
      <g
         id="g58">
        <g
           id="g46">
          <g
             id="g40" />
          <g
             id="g44" />
        </g>
        <g
           id="g56">
          <g
             id="g50">
            <use
               height="100%"
               width="100%"
               y="0"
               x="0"
               transform="matrix(2,0,0,1.9047619,-750,-653.33333)"
               id="use48"
               fill-opacity="1"
               fill="#ffffff"
               opacity="1"
               xlink:href="#aYxWIZhlT" />
          </g>
          <g
             id="g54">
            <use
               height="100%"
               width="100%"
               y="0"
               x="0"
               transform="matrix(2,0,0,1.9047619,-750,-653.33333)"
               id="use52"
               fill-opacity="1"
               fill="#ffffff"
               opacity="1"
               xlink:href="#c2YZn8nMnk" />
          </g>
        </g>
      </g>
    </g>
  </g>
</svg>
