<?xml version="1.0" encoding="UTF-8" standalone="no"?>
<svg
   xmlns:dc="http://purl.org/dc/elements/1.1/"
   xmlns:cc="http://creativecommons.org/ns#"
   xmlns:rdf="http://www.w3.org/1999/02/22-rdf-syntax-ns#"
   xmlns:svg="http://www.w3.org/2000/svg"
   xmlns="http://www.w3.org/2000/svg"
   xmlns:xlink="http://www.w3.org/1999/xlink"
   xmlns:sodipodi="http://sodipodi.sourceforge.net/DTD/sodipodi-0.dtd"
   xmlns:inkscape="http://www.inkscape.org/namespaces/inkscape"
   version="1.1"
   preserveAspectRatio="xMidYMid meet"
   viewBox="0 0 1024 1024"
   width="1024"
   height="1024"
   id="svg74"
   sodipodi:docname="state-offline.svg"
   inkscape:version="1.0 (4035a4fb49, 2020-05-01)">
  <metadata
     id="metadata78">
    <rdf:RDF>
      <cc:Work
         rdf:about="">
        <dc:format>image/svg+xml</dc:format>
        <dc:type
           rdf:resource="http://purl.org/dc/dcmitype/StillImage" />
      </cc:Work>
    </rdf:RDF>
  </metadata>
  <sodipodi:namedview
     inkscape:document-rotation="0"
     pagecolor="#ffffff"
     bordercolor="#666666"
     borderopacity="1"
     objecttolerance="10"
     gridtolerance="10"
     guidetolerance="10"
     inkscape:pageopacity="0"
     inkscape:pageshadow="2"
     inkscape:window-width="1920"
     inkscape:window-height="1057"
     id="namedview76"
     showgrid="false"
     inkscape:zoom="0.59385921"
     inkscape:cx="516.19657"
     inkscape:cy="540.35786"
     inkscape:window-x="3192"
     inkscape:window-y="-8"
     inkscape:window-maximized="1"
     inkscape:current-layer="svg74" />
  <defs
     id="defs14">
    <path
       d="M512 82.75L281 198.25L281 429.25L512 544.75L743 429.25L743 198.25L512 82.75Z"
       id="a5dN6uCWv" />
    <path
       d="M256 479.25L25 594.75L25 825.75L256 941.25L487 825.75L487 594.75L256 479.25Z"
       id="aNnYSCslU" />
    <path
       d="M768 479.19L537 594.69L537 825.69L768 941.19L999 825.69L999 594.69L768 479.19Z"
       id="a2fVV1igW2" />
    <path
       d="M512 132.75L331 223.25L331 404.25L512 494.75L693 404.25L693 223.25L512 132.75Z"
       id="bVFcEEK8V" />
    <path
       d="M256 529.25L75 619.75L75 800.75L256 891.25L437 800.75L437 619.75L256 529.25Z"
       id="bi8exSx0o" />
    <path
       d="M768 529.25L587 619.75L587 800.75L768 891.25L949 800.75L949 619.75L768 529.25Z"
       id="b1Eq7KlwOO" />
    <path
       d="M677 694.25C677 714.95 660.2 731.75 639.5 731.75C618.8 731.75 602 714.95 602 694.25C602 673.55 618.8 656.75 639.5 656.75C660.2 656.75 677 673.55 677 694.25Z"
       id="bfxXTjpFe" />
    <path
       d="M789.5 694.25C789.5 714.95 772.7 731.75 752 731.75C731.3 731.75 714.5 714.95 714.5 694.25C714.5 673.55 731.3 656.75 752 656.75C772.7 656.75 789.5 673.55 789.5 694.25Z"
       id="a1ZLkBAjHm" />
    <path
       d="M902 694.25C902 714.95 885.2 731.75 864.5 731.75C843.8 731.75 827 714.95 827 694.25C827 673.55 843.8 656.75 864.5 656.75C885.2 656.75 902 673.55 902 694.25Z"
       id="h2itwLewTK" />
    <path
       d="M693 710.25C693 730.95 676.2 747.75 655.5 747.75C634.8 747.75 618 730.95 618 710.25C618 689.55 634.8 672.75 655.5 672.75C676.2 672.75 693 689.55 693 710.25Z"
       id="anFsmxfdL" />
    <path
       d="M805.5 710.25C805.5 730.95 788.7 747.75 768 747.75C747.3 747.75 730.5 730.95 730.5 710.25C730.5 689.55 747.3 672.75 768 672.75C788.7 672.75 805.5 689.55 805.5 710.25Z"
       id="a48HYSQhd3" />
    <path
       d="M918 710.25C918 730.95 901.2 747.75 880.5 747.75C859.8 747.75 843 730.95 843 710.25C843 689.55 859.8 672.75 880.5 672.75C901.2 672.75 918 689.55 918 710.25Z"
       id="anq0XOugt" />
  </defs>
  <path
     sodipodi:type="star"
     style="fill:#595959;fill-opacity:1"
     id="path903"
     sodipodi:sides="3"
     sodipodi:cx="-140.50233"
     sodipodi:cy="179.79533"
     sodipodi:r1="84.673592"
     sodipodi:r2="42.336796"
     sodipodi:arg1="0.52359878"
     sodipodi:arg2="1.5707963"
     inkscape:flatsided="true"
     inkscape:rounded="0"
     inkscape:randomized="0"
     d="m -67.172853,222.13213 -146.658967,0 73.32949,-127.010388 z"
     inkscape:transform-center-y="-170.66666"
     transform="matrix(6.9821849,0,-4.0311663,8.0623327,2388.4648,-766.90313)"
     inkscape:transform-center-x="170.66673" />
  <g
     id="g72">
    <g
       id="g70">
      <g
         id="g18">
        <use
           xlink:href="#a5dN6uCWv"
           opacity="1"
           fill="#002857"
           fill-opacity="1"
           id="use16" />
      </g>
      <g
         id="g22">
        <use
           xlink:href="#aNnYSCslU"
           opacity="1"
           fill="#002857"
           fill-opacity="1"
           id="use20" />
      </g>
      <g
         id="g26" />
      <g
         id="g30">
        <use
           xlink:href="#bVFcEEK8V"
           opacity="1"
           fill="#ffffff"
           fill-opacity="1"
           id="use28" />
      </g>
      <g
         id="g34">
        <use
           xlink:href="#bi8exSx0o"
           opacity="1"
           fill="#ffffff"
           fill-opacity="1"
           id="use32" />
      </g>
      <g
         id="g38" />
      <g
         id="g68">
        <g
           id="g52">
          <g
             id="g42" />
          <g
             id="g46" />
          <g
             id="g50" />
        </g>
        <g
           id="g66">
          <g
             id="g56">
            <use
               xlink:href="#anFsmxfdL"
               opacity="1"
               fill="#ffffff"
               fill-opacity="1"
               id="use54"
               transform="matrix(2,0,0,2,-736,-710.5)"
               x="0"
               y="0"
               width="100%"
               height="100%" />
          </g>
          <g
             id="g60" />
          <g
             id="g64" />
        </g>
      </g>
    </g>
  </g>
  <use
     height="100%"
     width="100%"
     y="0"
     x="0"
     transform="matrix(2,0,0,2,-561,-710.5)"
     id="use54-8"
     fill-opacity="1"
     fill="#ffffff"
     opacity="1"
     xlink:href="#anFsmxfdL" />
  <use
     xlink:href="#anFsmxfdL"
     opacity="1"
     fill="#ffffff"
     fill-opacity="1"
     id="use54-8-3"
     transform="matrix(2,0,0,2,-386,-710.5)"
     x="0"
     y="0"
     width="100%"
     height="100%" />
</svg>
