<?xml version="1.0" encoding="UTF-8" standalone="no"?>
<svg
   xmlns:dc="http://purl.org/dc/elements/1.1/"
   xmlns:cc="http://creativecommons.org/ns#"
   xmlns:rdf="http://www.w3.org/1999/02/22-rdf-syntax-ns#"
   xmlns:svg="http://www.w3.org/2000/svg"
   xmlns="http://www.w3.org/2000/svg"
   xmlns:xlink="http://www.w3.org/1999/xlink"
   xmlns:sodipodi="http://sodipodi.sourceforge.net/DTD/sodipodi-0.dtd"
   xmlns:inkscape="http://www.inkscape.org/namespaces/inkscape"
   inkscape:version="1.0 (4035a4fb49, 2020-05-01)"
   sodipodi:docname="state-sync.svg"
   id="svg55"
   height="1024"
   width="1024"
   viewBox="0 0 1024 1024"
   preserveAspectRatio="xMidYMid meet"
   version="1.1">
  <metadata
     id="metadata59">
    <rdf:RDF>
      <cc:Work
         rdf:about="">
        <dc:format>image/svg+xml</dc:format>
        <dc:type
           rdf:resource="http://purl.org/dc/dcmitype/StillImage" />
      </cc:Work>
    </rdf:RDF>
  </metadata>
  <sodipodi:namedview
     inkscape:current-layer="svg55"
     inkscape:window-maximized="1"
     inkscape:window-y="22"
     inkscape:window-x="1272"
     inkscape:cy="594.61587"
     inkscape:cx="243.17848"
     inkscape:zoom="0.59385921"
     showgrid="false"
     id="namedview57"
     inkscape:window-height="1027"
     inkscape:window-width="1920"
     inkscape:pageshadow="2"
     inkscape:pageopacity="0"
     guidetolerance="10"
     gridtolerance="10"
     objecttolerance="10"
     borderopacity="1"
     bordercolor="#666666"
     pagecolor="#ffffff" />
  <defs
     id="defs11">
    <path
       id="aaYJtZuWM"
       d="M512 82.75L281 198.25L281 429.25L512 544.75L743 429.25L743 198.25L512 82.75Z" />
    <path
       id="guBEYfKBf"
       d="M256 479.25L25 594.75L25 825.75L256 941.25L487 825.75L487 594.75L256 479.25Z" />
    <path
       id="ctt233SnN"
       d="M768 479.19L537 594.69L537 825.69L768 941.19L999 825.69L999 594.69L768 479.19Z" />
    <path
       id="c30eHpcVHV"
       d="M512 132.75L331 223.25L331 404.25L512 494.75L693 404.25L693 223.25L512 132.75Z" />
    <path
       id="c1vmiJzfWH"
       d="M256 529.25L75 619.75L75 800.75L256 891.25L437 800.75L437 619.75L256 529.25Z" />
    <path
       id="a2g6V0OVNQ"
       d="M768 529.25L587 619.75L587 800.75L768 891.25L949 800.75L949 619.75L768 529.25Z" />
    <path
       id="c4UCGYS8ou"
       d="M884 702.25C884 776.76 823.51 837.25 749 837.25C674.49 837.25 614 776.76 614 702.25C614 627.74 674.49 567.25 749 567.25C823.51 567.25 884 627.74 884 702.25Z" />
    <path
       id="a1tMwalsyo"
       d="M900 718.25C900 792.76 839.51 853.25 765 853.25C690.49 853.25 630 792.76 630 718.25C630 643.74 690.49 583.25 765 583.25C839.51 583.25 900 643.74 900 718.25Z" />
    <path
       id="bybMdrk3x"
       d="M859.5 718.25C859.5 770.41 817.16 812.75 765 812.75C712.84 812.75 670.5 770.41 670.5 718.25C670.5 666.1 712.84 623.75 765 623.75C817.16 623.75 859.5 666.1 859.5 718.25Z" />
  </defs>
  <path
     inkscape:transform-center-x="170.6667"
     transform="matrix(4.9452243,0,-2.8551266,5.7102532,2141.2179,-126.43637)"
     inkscape:transform-center-y="-170.66665"
     d="m -109.60064,201.46854 -207.06846,0 103.53423,-179.326549 z"
     inkscape:randomized="0"
     inkscape:rounded="0"
     inkscape:flatsided="true"
     sodipodi:arg2="1.5707963"
     sodipodi:arg1="0.52359878"
     sodipodi:r2="59.775513"
     sodipodi:r1="119.55103"
     sodipodi:cy="141.69302"
     sodipodi:cx="-213.13487"
     sodipodi:sides="3"
     id="path884"
     style="fill:#2268ab;fill-opacity:1"
     sodipodi:type="star" />
  <g
     id="g53">
    <g
       id="g51">
      <g
         id="g15">
        <use
           id="use13"
           fill-opacity="1"
           fill="#002857"
           opacity="1"
           xlink:href="#aaYJtZuWM" />
      </g>
      <g
         id="g19">
        <use
           id="use17"
           fill-opacity="1"
           fill="#002857"
           opacity="1"
           xlink:href="#guBEYfKBf" />
      </g>
      <g
         id="g23" />
      <g
         id="g27">
        <use
           id="use25"
           fill-opacity="1"
           fill="#ffffff"
           opacity="1"
           xlink:href="#c30eHpcVHV" />
      </g>
      <g
         id="g31">
        <use
           id="use29"
           fill-opacity="1"
           fill="#ffffff"
           opacity="1"
           xlink:href="#c1vmiJzfWH" />
      </g>
      <g
         id="g35" />
      <g
         id="g49">
        <g
           id="g39" />
        <g
           id="g43">
          <path
             d="m 756,500 c -137.98148,0 -250,112.01852 -250,250 0,137.98148 112.01852,250 250,250 137.9815,0 250,-112.01852 250,-250 0,-137.98148 -112.0185,-250 -250,-250 z m 0,75 c 96.59259,0 175,78.42593 175,175 0,96.59259 -78.40741,175 -175,175 -96.59259,0 -175,-78.40741 -175,-175 0,-96.57407 78.40741,-175 175,-175 z"
             style="fill:#ffffff;fill-opacity:1;stroke-width:1.85185"
             id="use41" />
        </g>
        <g
           id="g47" />
      </g>
    </g>
  </g>
</svg>
