<?xml version="1.0" encoding="UTF-8" standalone="no"?>
<svg
   xmlns:dc="http://purl.org/dc/elements/1.1/"
   xmlns:cc="http://creativecommons.org/ns#"
   xmlns:rdf="http://www.w3.org/1999/02/22-rdf-syntax-ns#"
   xmlns:svg="http://www.w3.org/2000/svg"
   xmlns="http://www.w3.org/2000/svg"
   xmlns:xlink="http://www.w3.org/1999/xlink"
   xmlns:sodipodi="http://sodipodi.sourceforge.net/DTD/sodipodi-0.dtd"
   xmlns:inkscape="http://www.inkscape.org/namespaces/inkscape"
   inkscape:version="1.0 (4035a4fb49, 2020-05-01)"
   sodipodi:docname="state-warning.svg"
   id="svg66"
   height="1024"
   width="1024"
   viewBox="0 0 1024 1024"
   preserveAspectRatio="xMidYMid meet"
   version="1.1">
  <metadata
     id="metadata70">
    <rdf:RDF>
      <cc:Work
         rdf:about="">
        <dc:format>image/svg+xml</dc:format>
        <dc:type
           rdf:resource="http://purl.org/dc/dcmitype/StillImage" />
      </cc:Work>
    </rdf:RDF>
  </metadata>
  <sodipodi:namedview
     inkscape:current-layer="svg66"
     inkscape:window-maximized="1"
     inkscape:window-y="22"
     inkscape:window-x="1272"
     inkscape:cy="1225.2168"
     inkscape:cx="1732.6057"
     inkscape:zoom="0.29692961"
     showgrid="false"
     id="namedview68"
     inkscape:window-height="1027"
     inkscape:window-width="1920"
     inkscape:pageshadow="2"
     inkscape:pageopacity="0"
     guidetolerance="10"
     gridtolerance="10"
     objecttolerance="10"
     borderopacity="1"
     bordercolor="#666666"
     pagecolor="#ffffff" />
  <defs
     id="defs12">
    <path
       id="d7gmhMPe3H"
       d="M512 82.75L281 198.25L281 429.25L512 544.75L743 429.25L743 198.25L512 82.75Z" />
    <path
       id="juJNAxi3n"
       d="M256 479.25L25 594.75L25 825.75L256 941.25L487 825.75L487 594.75L256 479.25Z" />
    <path
       id="a1m4NCo6DV"
       d="M768 479.19L537 594.69L537 825.69L768 941.19L999 825.69L999 594.69L768 479.19Z" />
    <path
       id="aUFRA7sT"
       d="M512 132.75L331 223.25L331 404.25L512 494.75L693 404.25L693 223.25L512 132.75Z" />
    <path
       id="b15UHNhWj9"
       d="M256 529.25L75 619.75L75 800.75L256 891.25L437 800.75L437 619.75L256 529.25Z" />
    <path
       id="ek6JRsiNQ"
       d="M768 529.25L587 619.75L587 800.75L768 891.25L949 800.75L949 619.75L768 529.25Z" />
    <path
       id="a4qIjc9YQb"
       d="M789.5 729L714.5 729L714.5 579L789.5 579L789.5 729Z" />
    <path
       id="a5b2LQUn7v"
       d="M714.5 804C714.5 783.3 731.3 766.5 752 766.5C772.7 766.5 789.5 783.3 789.5 804C789.5 824.7 772.7 841.5 752 841.5C731.3 841.5 714.5 824.7 714.5 804Z" />
    <path
       id="gp14V1XDK"
       d="M805.5 745L730.5 745L730.5 595L805.5 595L805.5 745Z" />
    <path
       id="c2aTMidTOd"
       d="M730.5 820C730.5 799.3 747.3 782.5 768 782.5C788.7 782.5 805.5 799.3 805.5 820C805.5 840.7 788.7 857.5 768 857.5C747.3 857.5 730.5 840.7 730.5 820Z" />
  </defs>
  <path
     inkscape:transform-center-x="170.66665"
     transform="matrix(5.0547147,0,-2.9183409,5.8366818,2242.5764,-366.74157)"
     inkscape:transform-center-y="-170.66665"
     d="m -103.50843,238.27607 -202.58315,0 L -204.8,62.833916 Z"
     inkscape:randomized="0"
     inkscape:rounded="0"
     inkscape:flatsided="true"
     sodipodi:arg2="1.5707963"
     sodipodi:arg1="0.52359878"
     sodipodi:r2="58.480713"
     sodipodi:r1="116.96143"
     sodipodi:cy="179.79535"
     sodipodi:cx="-204.8"
     sodipodi:sides="3"
     id="path895"
     style="fill:#e0d92d;fill-opacity:1"
     sodipodi:type="star" />
  <g
     id="g64">
    <g
       id="g62">
      <g
         id="g16">
        <use
           id="use14"
           fill-opacity="1"
           fill="#002857"
           opacity="1"
           xlink:href="#d7gmhMPe3H" />
      </g>
      <g
         id="g20">
        <use
           id="use18"
           fill-opacity="1"
           fill="#002857"
           opacity="1"
           xlink:href="#juJNAxi3n" />
      </g>
      <g
         id="g24" />
      <g
         id="g28">
        <use
           id="use26"
           fill-opacity="1"
           fill="#ffffff"
           opacity="1"
           xlink:href="#aUFRA7sT" />
      </g>
      <g
         id="g32">
        <use
           id="use30"
           fill-opacity="1"
           fill="#ffffff"
           opacity="1"
           xlink:href="#b15UHNhWj9" />
      </g>
      <g
         id="g36" />
      <g
         id="g60">
        <g
           id="g48">
          <g
             id="g46">
            <g
               id="g40">
              <use
                 height="100%"
                 width="100%"
                 y="0"
                 x="0"
                 transform="matrix(1.7953321,0,0,1.7953321,-590.45229,-539.49729)"
                 id="use38"
                 fill-opacity="1"
                 fill="#002857"
                 opacity="1"
                 xlink:href="#a4qIjc9YQb" />
            </g>
            <g
               id="g44">
              <use
                 height="100%"
                 width="100%"
                 y="0"
                 x="0"
                 transform="matrix(1.7953321,0,0,1.7953321,-590.45229,-539.49729)"
                 id="use42"
                 fill-opacity="1"
                 fill="#002857"
                 opacity="1"
                 xlink:href="#a5b2LQUn7v" />
            </g>
          </g>
        </g>
        <g
           id="g58">
          <g
             id="g52">
            <use
               height="100%"
               width="100%"
               y="0"
               x="0"
               transform="matrix(1.7953321,0,0,1.7953321,-590.45229,-539.49729)"
               id="use50"
               fill-opacity="1"
               fill="#ffffff"
               opacity="1"
               xlink:href="#gp14V1XDK" />
          </g>
          <g
             id="g56">
            <use
               height="100%"
               width="100%"
               y="0"
               x="0"
               transform="matrix(1.7953321,0,0,1.7953321,-590.45229,-539.49729)"
               id="use54"
               fill-opacity="1"
               fill="#ffffff"
               opacity="1"
               xlink:href="#c2aTMidTOd" />
          </g>
        </g>
      </g>
    </g>
  </g>
</svg>
