<?xml version="1.0" encoding="UTF-8" standalone="no"?>
<svg
   xmlns:dc="http://purl.org/dc/elements/1.1/"
   xmlns:cc="http://creativecommons.org/ns#"
   xmlns:rdf="http://www.w3.org/1999/02/22-rdf-syntax-ns#"
   xmlns:svg="http://www.w3.org/2000/svg"
   xmlns="http://www.w3.org/2000/svg"
   xmlns:xlink="http://www.w3.org/1999/xlink"
   xmlns:sodipodi="http://sodipodi.sourceforge.net/DTD/sodipodi-0.dtd"
   xmlns:inkscape="http://www.inkscape.org/namespaces/inkscape"
   inkscape:version="1.0 (4035a4fb49, 2020-05-01)"
   sodipodi:docname="state-pause.svg"
   id="svg64"
   height="1024"
   width="1024"
   viewBox="0 0 1024 1024"
   preserveAspectRatio="xMidYMid meet"
   version="1.1">
  <metadata
     id="metadata68">
    <rdf:RDF>
      <cc:Work
         rdf:about="">
        <dc:format>image/svg+xml</dc:format>
        <dc:type
           rdf:resource="http://purl.org/dc/dcmitype/StillImage" />
      </cc:Work>
    </rdf:RDF>
  </metadata>
  <sodipodi:namedview
     inkscape:current-layer="svg64"
     inkscape:window-maximized="1"
     inkscape:window-y="22"
     inkscape:window-x="1272"
     inkscape:cy="978.11281"
     inkscape:cx="613.58661"
     inkscape:zoom="0.29692961"
     showgrid="false"
     id="namedview66"
     inkscape:window-height="1027"
     inkscape:window-width="1920"
     inkscape:pageshadow="2"
     inkscape:pageopacity="0"
     guidetolerance="10"
     gridtolerance="10"
     objecttolerance="10"
     borderopacity="1"
     bordercolor="#666666"
     pagecolor="#ffffff" />
  <defs
     id="defs12">
    <path
       id="e1WBARu90S"
       d="M512 82.75L281 198.25L281 429.25L512 544.75L743 429.25L743 198.25L512 82.75Z" />
    <path
       id="eb1XRg4tc"
       d="M256 479.25L25 594.75L25 825.75L256 941.25L487 825.75L487 594.75L256 479.25Z" />
    <path
       id="e6GMMqVZL"
       d="M768 479.19L537 594.69L537 825.69L768 941.19L999 825.69L999 594.69L768 479.19Z" />
    <path
       id="d4CeX45ci"
       d="M512 132.75L331 223.25L331 404.25L512 494.75L693 404.25L693 223.25L512 132.75Z" />
    <path
       id="a56Iihd7Bz"
       d="M256 529.25L75 619.75L75 800.75L256 891.25L437 800.75L437 619.75L256 529.25Z" />
    <path
       id="aTgTdlF3i"
       d="M768 529.25L587 619.75L587 800.75L768 891.25L949 800.75L949 619.75L768 529.25Z" />
    <path
       id="buWUeZm5d"
       d="M627.4 610.25L727.39 610.25L727.39 810.25L627.4 810.25L627.4 610.25Z" />
    <path
       id="a69KnhXCsA"
       d="M776.61 610.25L876.6 610.25L876.6 810.25L776.61 810.25L776.61 610.25Z" />
    <path
       id="bhqSsXvzH"
       d="M635.4 618.25L735.39 618.25L735.39 818.25L635.4 818.25L635.4 618.25Z" />
    <path
       id="c3AII3rP0"
       d="M784.61 618.25L884.6 618.25L884.6 818.25L784.61 818.25L784.61 618.25Z" />
  </defs>
  <path
     inkscape:transform-center-x="170.66661"
     transform="matrix(4.527884,0,-2.614175,5.2283501,2010.3534,-344.52175)"
     inkscape:transform-center-y="-170.66666"
     d="m -66.718248,261.75021 -226.154202,0 113.0771,-195.855282 z"
     inkscape:randomized="0"
     inkscape:rounded="0"
     inkscape:flatsided="true"
     sodipodi:arg2="1.5707963"
     sodipodi:arg1="0.52359878"
     sodipodi:r2="65.285095"
     sodipodi:r1="130.57019"
     sodipodi:cy="196.46512"
     sodipodi:cx="-179.79535"
     sodipodi:sides="3"
     id="path893"
     style="fill:#e0d92d;fill-opacity:1"
     sodipodi:type="star" />
  <use
     xlink:href="#bhqSsXvzH"
     opacity="1"
     fill="#ffffff"
     fill-opacity="1"
     id="use48-4"
     transform="matrix(2.0002,0,0,2,-765.92708,-652.5)"
     x="0"
     y="0"
     width="100%"
     height="100%"
     style="fill:#002857;fill-opacity:1" />
  <use
     xlink:href="#c3AII3rP0"
     opacity="1"
     fill="#ffffff"
     fill-opacity="1"
     id="use52-9"
     transform="matrix(2.0002,0,0,2,-794.37698,-652.5)"
     x="0"
     y="0"
     width="100%"
     height="100%"
     style="fill:#002857;fill-opacity:1" />
  <g
     id="g62">
    <g
       id="g60">
      <g
         id="g16">
        <use
           id="use14"
           fill-opacity="1"
           fill="#002857"
           opacity="1"
           xlink:href="#e1WBARu90S" />
      </g>
      <g
         id="g20">
        <use
           id="use18"
           fill-opacity="1"
           fill="#002857"
           opacity="1"
           xlink:href="#eb1XRg4tc" />
      </g>
      <g
         id="g24" />
      <g
         id="g28">
        <use
           id="use26"
           fill-opacity="1"
           fill="#ffffff"
           opacity="1"
           xlink:href="#d4CeX45ci" />
      </g>
      <g
         id="g32">
        <use
           id="use30"
           fill-opacity="1"
           fill="#ffffff"
           opacity="1"
           xlink:href="#a56Iihd7Bz" />
      </g>
      <g
         id="g36" />
      <g
         id="g58">
        <g
           id="g46">
          <g
             id="g40" />
          <g
             id="g44" />
        </g>
        <g
           id="g56">
          <g
             id="g50">
            <use
               style="fill:#ffffff;fill-opacity:1"
               height="100%"
               width="100%"
               y="0"
               x="0"
               transform="matrix(2.0002,0,0,2,-749.92708,-636.5)"
               id="use48"
               fill-opacity="1"
               fill="#ffffff"
               opacity="1"
               xlink:href="#bhqSsXvzH" />
          </g>
          <g
             id="g54">
            <use
               style="fill:#ffffff;fill-opacity:1"
               height="100%"
               width="100%"
               y="0"
               x="0"
               transform="matrix(2.0002,0,0,2,-778.37692,-636.5)"
               id="use52"
               fill-opacity="1"
               fill="#ffffff"
               opacity="1"
               xlink:href="#c3AII3rP0" />
          </g>
        </g>
      </g>
    </g>
  </g>
</svg>
